<svg xmlns="http://www.w3.org/2000/svg" viewBox="0 0 100 81" fill="#5e9aff">
    <path d="M 46 0 A 23.7 23.7 0 0 0 41.3556 0.3125 21.1 21.1 0 0 0 32.7556 3.4125 12.9 12.9 0 0 0 27.0556 11.4125 13.9 13.9 0 0 0 16.5556 12.3125 17.6 17.6 0 0 0 10.5556 17.2125 16.8 16.8 0 0 0 7.3556 24.1125 12 12 0 0 0 9.0556 33.4125 14.1 14.1 0 0 0 5.2556 42.9125 15.8 15.8 0 0 0 13.0556 56.6125 C 16.7556 58.8125 21.6556 59.7125 27.7556 58.4125 A 9.1 9.1 0 0 0 31.2556 63.3125 17.5 17.5 0 0 0 37.0556 65.9125 28.1 28.1 0 0 0 43.7556 66.9125 C 49.1556 67.0125 54.5556 65.6125 57.7556 62.8125 A 18.4 18.4 0 0 0 68.6556 66.4125 20.6 20.6 0 0 0 78.9556 63.6125 19.1 19.1 0 0 0 86.1556 56.4125 12.9 12.9 0 0 0 87.7556 49.5125 C 93.9556 48.3125 97.6556 44.4125 99.1556 39.7125 A 16.4 16.4 0 0 0 99.7556 33.4125 16.6 16.6 0 0 0 98.0556 27.3125 12.8 12.8 0 0 0 87.2556 20.1125 11.9 11.9 0 0 0 84.9556 11.7125 18.9 18.9 0 0 0 78.3556 6.1125 22.3 22.3 0 0 0 69.8556 3.6125 15.1 15.1 0 0 0 59.2556 6.4125 C 57.3556 3.5125 54.1556 1.6125 50.5556 0.7125 A 23.7 23.7 0 0 0 45.9556 0.0125 z M 50.3556 13.8125 A 4 4 0 0 1 54.3556 17.8125 L 54.3556 36.8125 61.4856 43.9425 A 4 4 0 0 1 61.4856 49.5425 4 4 0 0 1 55.8856 49.5425 L 46.3556 40.1125 46.3556 17.8125 A 4 4 0 0 1 50.3556 13.8125 z M 20.9556 62.1125 A 10.3 10.3 0 0 0 15.1556 63.8125 5.4 5.4 0 0 0 15.1556 73.2125 10.3 10.3 0 0 0 20.9556 74.9125 10.3 10.3 0 0 0 26.7556 73.2125 5.4 5.4 0 0 0 26.7556 63.8125 10.3 10.3 0 0 0 20.9556 62.1125 L 20.9556 62.1125 z M 6.1556 71.4125 L 6.1556 71.4125 A 7.4 7.4 0 0 0 1.9556 72.7125 4.2 4.2 0 0 0 1.9556 79.8125 7.4 7.4 0 0 0 6.1556 81.1125 7.4 7.4 0 0 0 10.3556 79.8125 4.2 4.2 0 0 0 10.3556 72.7125 7.4 7.4 0 0 0 6.1556 71.4125 z" />
</svg>